# xmcd CD database file
#
# Track frame offsets:
#	183
#	11133
#	23733
#	34120
#	45483
#	57008
#	68733
#	80733
#	93633
#	106758
#	118683
#	130608
#	143020
#	155208
#	168408
#
# Disc length: 2416 seconds
#
# Revision: 0
# Processed by: cddbd v1.5.1PL0 Copyright (c) Steve Scherf et al.
# Submitted via: CDex 1.50
#
DISCID=c1096e0f
DTITLE=Bix Beiderbecke - XXVI. Bix and The Woverines. Complete Recordings
DYEAR=1900
DGENRE=Jazz
TTITLE0=Fidgety
TTITLE1=Jazz Me Blues
TTITLE2=Oh Baby
TTITLE3=Copenhagen
TTITLE4=Riverboat Shuffle
TTITLE5=Susie of The Islands Take A
TTITLE6=Susie of The Islands Take B
TTITLE7=I Need Some Pettin'
TTITLE8=Royal Garden Blues
TTITLE9=Tiger Rag
TTITLE10=Sensation
TTITLE11=Lazy Daddy Take A
TTITLE12=Lazy Daddy Take B
TTITLE13=Tia Juana
TTITLE14=Big Boy
EXTD=
EXTT0=
EXTT1=
EXTT2=
EXTT3=
EXTT4=
EXTT5=
EXTT6=
EXTT7=
EXTT8=
EXTT9=
EXTT10=
EXTT11=
EXTT12=
EXTT13=
EXTT14=
PLAYORDER=
